<?xml version="1.0" encoding="utf-8"?>
<!-- Generator: Adobe Illustrator 23.0.1, SVG Export Plug-In . SVG Version: 6.00 Build 0)  -->
<svg version="1.1" id="Vrstva_1" xmlns="http://www.w3.org/2000/svg" xmlns:xlink="http://www.w3.org/1999/xlink" x="0px" y="0px"
	 viewBox="0 0 100 130" style="enable-background:new 0 0 100 130;" xml:space="preserve">
<style type="text/css">
	.st0{fill-rule:evenodd;clip-rule:evenodd;fill:#37ACE3;stroke:#39ABE2;stroke-width:8.5039;stroke-linecap:round;}
</style>
<g>
	<g id="Vrstva_1-2">
		<g id="svgGroup">
			<path class="st0" d="M83.7,128.9c3.5-0.3,0.7-0.2,1-0.4c0.2-0.1,0.4-0.2,0.6-0.3c0.1,0,0.2-0.1,0.3-0.2c0.6-0.4,1.2-0.9,1.6-1.5
				c0.3-0.4,0.5-0.7,0.7-1.1l0.1-0.2c0.4-0.8,0.7-1.7,0.7-2.7c0.1-0.5,0.1-1.1,0.1-1.6c0-2-0.4-4-1-5.9c-0.4-1.2-0.8-2.4-1.3-3.6
				c-0.9-2-2.1-3.9-3.5-5.6c-1.3-1.5-2.7-2.9-4.3-4.1c-1.2-0.9-2.3-1.7-3.6-2.5c-2.2-1.4-4.4-2.7-6.7-3.9c-3.8-1.9-7.7-3.6-11.7-5.1
				c-3.6-1.3-7.2-2.4-10.9-3.3l1-1.7l0.1-0.1c0.2-0.4,0.6-1,1-1.8l0.5-0.9c1.3-2.4,2.4-4.4,3.3-6c0.9-1.8,1.8-3.5,2.5-5l0.3-0.7
				l2.3-4.7c0.5-0.1,1-0.2,1.5-0.3c3.7-0.8,7.3-2,10.7-3.7c4.1-1.9,7.9-4.4,11.4-7.2c3.5-2.8,6.7-6,9.5-9.6l0.5-0.7
				c2.5-3.2,4.5-6.8,6-10.5c0.2-0.5,0.4-1,0.6-1.5c1.2-3.3,1.8-6.8,1.8-10.3v-1.1c0-0.2,0-0.5-0.1-0.8c0-0.1,0-0.3,0-0.4
				c-0.2-2-1.2-3.9-2.8-5.2c-1-0.9-2.2-1.5-3.4-1.9c-1-0.3-2-0.4-3.1-0.4c-2.9,0.2-5.7,1.1-8.2,2.7c-1.1,0.6-2.1,1.4-3,2.2
				c-1.2,1-2.2,2.1-3.3,3.2c-1.1,1.3-2.2,2.5-3.1,3.9c-2.4,3.4-4.5,6.9-6.3,10.7c-1.2,2.4-2.2,4.9-3.2,7.3l-0.8,2v0.1
				c-0.5,1.3-1.1,2.9-1.9,4.8c-0.1,0.3-0.2,0.5-0.3,0.7c-0.7,1.8-1.4,3.5-2.1,5.3l-0.2,0.4c-0.7,1.9-1.4,3.6-2,5.1s-1.1,2.7-1.4,3.3
				c-0.6,0.1-1.2,0.1-1.8,0.2c-1,0.1-1.9,0.1-2.9,0.1c-0.8,0-1.5,0-2.3-0.1c-1.3-0.1-2.7-0.3-4-0.6c-1.3-0.3-2.6-0.8-3.8-1.4
				c-0.8-0.4-1.5-0.9-2.2-1.4c-1.4-1.1-2.6-2.4-3.5-4c-1.2-2.2-1.8-4.6-1.8-7.1c0-1.1,0.1-2.2,0.3-3.3c0.4-1.9,1-3.7,1.8-5.4
				c1.5-2.9,3.5-5.4,6.1-7.4c2.7-2.1,5.8-3.4,9.2-3.7c1,0,2-0.3,2.9-0.8c0.2-0.1,0.3-0.3,0.3-0.6c0-0.4-0.5-0.6-1.5-0.6H50
				c-0.2,0-0.3,0-0.5,0.1c-0.2,0-0.3,0.1-0.5,0.1c-0.8,0.2-1.6,0.4-2.4,0.6c-3.6,0.9-7.1,2.4-10.3,4.3c-1.6,1-3,2.1-4.3,3.4
				c-1.1,1.1-2.1,2.3-2.9,3.6c-0.3,0.6-0.6,1.1-0.9,1.7c-0.9,1.9-1.4,4-1.4,6.2c0,1.5,0.2,3,0.7,4.5c0.6,1.7,1.4,3.3,2.5,4.7
				c2.3,3,5.4,5.4,9,6.8c2,0.9,4.2,1.5,6.3,1.9c2.4,0.4,4.9,0.6,7.4,0.5c-1.8,3.7-3.6,7.2-5.3,10.3c-1.6,3.1-3.4,6.2-5.4,9.2
				c-0.6-0.1-1.1-0.2-1.7-0.3c-1-0.2-2-0.3-3.1-0.3c-1.7-0.1-3.4-0.2-5.1-0.2h-1c-2.4,0-4.7,0.1-7.1,0.4c-1.1,0.1-2.2,0.3-3.3,0.5
				c-1.3,0.2-2.6,0.5-3.8,0.9l-0.6,0.2c-2.7,0.8-5.3,2-7.8,3.4c-1.1,0.7-2.1,1.5-3,2.4C3.2,95.6,2,98,2,100.6c0,1.7,0.5,3.3,1.5,4.7
				c0.6,0.8,1.3,1.6,2.1,2.3c1.5,1.2,3.2,2.1,5.1,2.5c1.3,0.3,2.7,0.5,4.1,0.4c0.7,0,1.4,0,2.1-0.1c1-0.1,1.9-0.3,2.9-0.5
				c0.7-0.2,1.4-0.4,2.1-0.6c1.1-0.4,2.2-0.8,3.3-1.3c1.3-0.6,2.6-1.3,3.8-2.1c2-1.3,3.9-2.8,5.6-4.5c0.6-0.5,1.1-1.1,1.7-1.7
				c2.4-2.5,4.7-5.2,6.7-8.1c4.3,0.8,8.6,1.7,13,2.8c4.3,1,8.5,2.5,12.6,4.2c4,1.7,7.6,4.1,10.8,7c0.8,0.7,1.5,1.4,2.1,2.2
				c1.1,1.4,2,3,2.6,4.7c0.3,1.1,0.6,2.2,0.8,3.3c0.2,1.3,0.4,2.6,0.4,3.8c0,0.4,0,0.8,0,1.1c0,1.3,0.6,2.2,0.3,3
				C85.2,124.2,85.7,128.1,83.7,128.9z M58.2,63.5c3.8-0.8,7.4-2.2,10.9-4c0.8-0.4,1.6-0.9,2.4-1.4c4.3-2.6,8.3-5.9,11.7-9.6
				c3.4-3.6,6.2-7.8,8.3-12.3c1.6-3.4,2.6-7,3-10.8c0.1-0.9,0.1-1.9,0.1-2.8c0-0.4,0-0.9-0.1-1.3c-0.1-0.6-0.4-1.1-0.8-1.5
				c-0.4-0.5-1.1-0.9-1.8-1c-0.3-0.1-0.6-0.1-0.8-0.1c-1.8,0.2-3.5,0.8-4.9,1.9l-1,0.6c-2.8,2.1-5.2,4.6-7.3,7.4L77,29.8
				c-1.1,1.5-2.2,3-3.2,4.6c-1.1,1.6-2.1,3.4-3.3,5.4s-2.3,4.2-3.4,6.3l-1.3,2.6L65,50.2l-2.7,5C61,57.9,59.6,60.6,58.2,63.5
				L58.2,63.5z M13.3,107.6c0.9,0,1.7-0.1,2.6-0.2c0.7-0.1,1.5-0.3,2.2-0.4c1-0.2,2-0.5,3-0.9c0.8-0.3,1.6-0.6,2.4-1
				c2.9-1.4,5.6-3.3,8-5.5c2.2-2,4.2-4.2,5.9-6.6c0.5-0.7,1.1-1.4,1.6-2.2c-1.6-0.3-3.2-0.6-4.8-0.8c-1.7-0.2-3.4-0.3-5.1-0.3
				s-3.5,0.1-5.2,0.3h-0.4c-1.9,0.2-3.7,0.6-5.5,1.1c-1.4,0.4-2.7,0.8-4.1,1.3c-1.2,0.5-2.4,1-3.6,1.6c-1,0.5-1.9,1-2.7,1.7
				c-0.6,0.5-1.1,1-1.6,1.5c-0.5,0.5-0.9,1.1-1.2,1.7c-0.4,0.8-0.7,1.6-0.7,2.5c0,1.2,0.5,2.4,1.3,3.3c0.4,0.4,0.8,0.7,1.2,1
				c0.8,0.6,1.8,1,2.8,1.3c0.9,0.2,1.7,0.4,2.6,0.4C12.4,107.6,12.9,107.6,13.3,107.6L13.3,107.6z"/>
		</g>
	</g>
</g>
</svg>
