<svg xmlns="http://www.w3.org/2000/svg" viewBox="0 0 188.38 127.02"><defs><style>.cls-1{fill:#33ace3;stroke:#35abe2;}.cls-1,.cls-2{stroke-linecap:round;stroke-width:0.71px;fill-rule:evenodd;}.cls-2{fill:#d4ecf9;stroke:#d4edfa;}</style></defs><title>Datový zdroj 7</title><g id="Vrstva_2" data-name="Vrstva 2"><g id="Vrstva_1-2" data-name="Vrstva 1"><g id="svgGroup"><path class="cls-1" d="M82.09,116.72c3.46-.32.65-.17,1-.36.21-.09.41-.2.61-.31a1.59,1.59,0,0,0,.29-.15,5.74,5.74,0,0,0,1.59-1.55,11.56,11.56,0,0,0,.72-1.1l.09-.15a7.2,7.2,0,0,0,.74-2.65,14.17,14.17,0,0,0,.07-1.6,20,20,0,0,0-1-5.94,35.55,35.55,0,0,0-1.34-3.56,21.83,21.83,0,0,0-3.54-5.57A29.24,29.24,0,0,0,77,89.65q-1.73-1.34-3.55-2.54a68.86,68.86,0,0,0-6.7-3.91,103.67,103.67,0,0,0-11.65-5.1,100.9,100.9,0,0,0-10.9-3.35L45.2,73.1l.06-.09c.23-.37.57-1,1-1.76l.48-.86C48,68,49.12,66,50,64.35q1.41-2.7,2.55-5l.33-.67L55.15,54c.52-.09,1-.19,1.55-.3A47.08,47.08,0,0,0,67.4,50a57.85,57.85,0,0,0,11.4-7.2,57.88,57.88,0,0,0,9.5-9.6l.52-.66A45,45,0,0,0,94.8,22c.2-.48.38-1,.56-1.47a31.35,31.35,0,0,0,1.79-10.33V9.09c0-.2,0-.47-.05-.82,0-.14,0-.28,0-.42a7.62,7.62,0,0,0-2.75-5.2A8.64,8.64,0,0,0,90.9.76,11.16,11.16,0,0,0,87.85.35a16.42,16.42,0,0,0-8.15,2.7,23.48,23.48,0,0,0-3,2.17,33.51,33.51,0,0,0-3.25,3.2Q71.78,10.3,70.3,12.3A66.54,66.54,0,0,0,64.05,23c-1.15,2.41-2.21,4.85-3.2,7.32L60.1,32.3l0,.1c-.5,1.28-1.12,2.87-1.87,4.75-.09.25-.19.49-.28.73-.7,1.76-1.38,3.52-2.07,5.27l-.15.41c-.74,1.91-1.4,3.62-2,5.14S52.62,51.42,52.35,52c-.61.08-1.22.14-1.83.19-1,.07-1.91.11-2.87.11-.77,0-1.54,0-2.31-.07a24.17,24.17,0,0,1-4-.58,16.08,16.08,0,0,1-3.84-1.4,15.71,15.71,0,0,1-2.23-1.4,12.31,12.31,0,0,1-3.47-3.95,14.58,14.58,0,0,1-1.8-7.1,18,18,0,0,1,.31-3.28,20.42,20.42,0,0,1,1.84-5.42,21.84,21.84,0,0,1,6.1-7.4A17.93,17.93,0,0,1,47.45,18a6.24,6.24,0,0,0,2.89-.83.72.72,0,0,0,.31-.57q0-.6-1.5-.6H48.3a2.63,2.63,0,0,0-.47.06,2.9,2.9,0,0,0-.48.14c-.79.19-1.58.39-2.36.61A38.34,38.34,0,0,0,34.7,21.1a27.79,27.79,0,0,0-4.34,3.38,18.42,18.42,0,0,0-2.91,3.62c-.33.56-.63,1.14-.91,1.73A14.56,14.56,0,0,0,25.15,36a14.75,14.75,0,0,0,.7,4.47,16.25,16.25,0,0,0,2.45,4.73,21.52,21.52,0,0,0,9,6.85,26.93,26.93,0,0,0,6.33,1.87,37.79,37.79,0,0,0,7.37.48Q48.25,60,45.75,64.7a103.69,103.69,0,0,1-5.4,9.15c-.56-.12-1.12-.23-1.69-.32-1-.16-2-.27-3.06-.33-1.7-.1-3.41-.15-5.15-.15h-1q-3.54,0-7.06.44c-1.09.13-2.19.29-3.27.48-1.29.23-2.57.52-3.83.87l-.64.2a33.3,33.3,0,0,0-7.78,3.42,16.08,16.08,0,0,0-3,2.43Q.35,84.56.35,88.35a8.14,8.14,0,0,0,1.46,4.7A11.45,11.45,0,0,0,3.9,95.3,12.27,12.27,0,0,0,9,97.8a16.85,16.85,0,0,0,4.06.45,17.7,17.7,0,0,0,2.07-.12A20.75,20.75,0,0,0,18,97.6c.73-.18,1.44-.39,2.15-.63a31.58,31.58,0,0,0,3.25-1.32,30.92,30.92,0,0,0,3.83-2.1,36.36,36.36,0,0,0,5.62-4.5q.84-.81,1.65-1.65a72.58,72.58,0,0,0,6.7-8.05q6.41,1.2,13,2.8a78.68,78.68,0,0,1,12.55,4.2,38.78,38.78,0,0,1,10.8,7,18,18,0,0,1,2.14,2.22,14.16,14.16,0,0,1,2.56,4.68,26.39,26.39,0,0,1,.83,3.26,20.73,20.73,0,0,1,.37,3.84c0,.38,0,.75,0,1.12,0,1.25.57,2.17.34,3C83.56,112,84,115.9,82.09,116.72ZM88.75,52H95a21.25,21.25,0,0,0-3,2.85,28.75,28.75,0,0,0-3.35,5.65l-.7,1.4L86.1,65.4,84,69.75l-1.74,3.69h0c-.24.52-.47,1-.69,1.57a20.76,20.76,0,0,0-1,2.88,13.39,13.39,0,0,0-.4,3c0,2.2.74,3.3,2.2,3.3a3.84,3.84,0,0,0,1.6-.38,10.45,10.45,0,0,0,3-2.18c.44-.43.85-.87,1.25-1.34a55.65,55.65,0,0,0,5.5-7.9q2.7-4.59,5.15-9.5,1.1-2.18,2.18-4.37c.78-1.57,1.5-3,2.17-4.43a3.77,3.77,0,0,1,2.65-2.07,5.83,5.83,0,0,1,1.25-.13h5.5a25.65,25.65,0,0,0-2.5,2.25,10.25,10.25,0,0,0-.83,1A15.72,15.72,0,0,0,108.1,57c-.48.9-1.09,2.07-1.83,3.53L105.55,62,102.8,67.7c-1,2-1.81,4-2.55,5.75q-.31.8-.6,1.59a18.8,18.8,0,0,0-.8,2.81c0,.16,0,.32,0,.47,0,.3-.06.56-.1.77a2,2,0,0,1,0,.26,6.24,6.24,0,0,0-.1,1.1,4.34,4.34,0,0,0,.65,2.7,3.24,3.24,0,0,0,.5.48,1.8,1.8,0,0,0,1,.32,5.78,5.78,0,0,0,3.69-1.56,11.34,11.34,0,0,0,1.16-1.14,37.55,37.55,0,0,0,4.63-6.47l.07-.13q1.22-2.1,2.33-4.26c.53-1,1.68-3.41,1.76-3.54a27.41,27.41,0,0,1-1.2,5.85l-.44.85a60.48,60.48,0,0,1-3.6,6.1,24.53,24.53,0,0,1-2.3,3,18.71,18.71,0,0,1-2.1,2A9.08,9.08,0,0,1,102.36,86a7.53,7.53,0,0,1-2.81.52,5.17,5.17,0,0,1-4.1-1.85,6.16,6.16,0,0,1-1.19-2.21,10.35,10.35,0,0,1-.41-3,19.17,19.17,0,0,1,1-5.8,57.35,57.35,0,0,1-3.09,4.88c-.26.38-.53.75-.81,1.12a27.19,27.19,0,0,1-2.49,3,21.84,21.84,0,0,1-2.21,2,8.36,8.36,0,0,1-4.46,1.93,4.87,4.87,0,0,1-.54,0,5.22,5.22,0,0,1-.88-.07,7.25,7.25,0,0,1-1-.19c-.28-.07-.55-.15-.82-.24a5.64,5.64,0,0,1-2.39-1.51c-.11-.11-.21-.22-.31-.34a4.38,4.38,0,0,1-.76-1.37,6.27,6.27,0,0,1-.31-1.4,9.3,9.3,0,0,1-.08-1.28,24.16,24.16,0,0,1,.82-5,58.62,58.62,0,0,1,2.88-8.09c.24-.52.46-1,.9-1.9,1-2.06,2-4.05,3-6,.42-.78.83-1.57,1.24-2.36l1-2.05c.1-.21.21-.42.31-.64A3.77,3.77,0,0,1,88,52,5.25,5.25,0,0,1,88.75,52Zm30.72,34.81a17.24,17.24,0,0,0,2.78.19,20.1,20.1,0,0,0,4.68-.51,13.13,13.13,0,0,0,4.47-2,18.72,18.72,0,0,0,3.1-2.73c1.13-1.25,3.64-8.9,2-6.17a29.85,29.85,0,0,1-1.76,2.66,25.89,25.89,0,0,1-3.84,4.19,10.66,10.66,0,0,1-3.11,1.93,11.62,11.62,0,0,1-4.44.82,6.69,6.69,0,0,1-1.26-.1,4.51,4.51,0,0,1-3.29-2.25,9.78,9.78,0,0,1-.92-2.18,11.65,11.65,0,0,1-.43-3.17,19.28,19.28,0,0,1,1-6,44.73,44.73,0,0,1,2.25-5.6l.42-.82a23.17,23.17,0,0,1,1.73-2.93A36.94,36.94,0,0,1,128,56.2a15.27,15.27,0,0,1,1.32-1.09,9.62,9.62,0,0,1,1.86-1.1,6.06,6.06,0,0,1,2.47-.56,4.21,4.21,0,0,1,.62,0c1.19.2,1.78,1,1.78,2.45v0a7.26,7.26,0,0,1-.4,2.36,8.48,8.48,0,0,1-.54,1.37,12.38,12.38,0,0,1-.76,1.33c-.08.13-.16.26-.25.39a24.15,24.15,0,0,1-1.45,2l0,0a1.88,1.88,0,0,0,1.36.56,3.27,3.27,0,0,0,1.38-.31,5,5,0,0,0,1.07-.7,7.67,7.67,0,0,0,.95-.94,8.78,8.78,0,0,0,1.24-1.77,6,6,0,0,0,.66-2.18,8.35,8.35,0,0,0,0-2,5.24,5.24,0,0,0-3-4.22,7.54,7.54,0,0,0-2-.62,13.07,13.07,0,0,0-2.08-.17,12.78,12.78,0,0,0-3.58.54,15.77,15.77,0,0,0-3.52,1.61,23.44,23.44,0,0,0-6.4,6.05,35,35,0,0,0-2.3,3.49A42.55,42.55,0,0,0,114,68.05a29.85,29.85,0,0,0-1.43,4.41,21.58,21.58,0,0,0-.62,5c0,.45,0,.9.07,1.34a9.87,9.87,0,0,0,2.23,5.41,6.67,6.67,0,0,0,2.66,1.88A10.74,10.74,0,0,0,119.47,86.76Zm45.28.19a10.28,10.28,0,0,1-6.65-2.4,7.62,7.62,0,0,1-2.55-4,12.3,12.3,0,0,1-.39-2.82c0-.15,0-.3,0-.45a24.43,24.43,0,0,1,2.08-9.34l.12-.31a34.25,34.25,0,0,1,5.6-9,27.27,27.27,0,0,1,6-5.24l.55-.36a14.42,14.42,0,0,1,5.67-2.13c.37,0,.75-.06,1.13-.07a6.94,6.94,0,0,1,2.08.31,5.86,5.86,0,0,1,1.72.89,4.21,4.21,0,0,1,1.67,3,4.79,4.79,0,0,1,0,.65,7.72,7.72,0,0,1-.36,2.29,11.48,11.48,0,0,1-.82,2,13.81,13.81,0,0,1-.72,1.24,18.55,18.55,0,0,1-2.55,3.17,25.39,25.39,0,0,1-2.85,2.43,14.56,14.56,0,0,1-1.43.93,23.83,23.83,0,0,1-2.37,1.17,34.76,34.76,0,0,1-4.6,1.65,14.07,14.07,0,0,1-3.78.65h0a20.45,20.45,0,0,0-.95,3.2,18.66,18.66,0,0,0-.45,4.1,11.32,11.32,0,0,0,.32,2.66,9,9,0,0,0,.68,1.84,3.47,3.47,0,0,0,2.49,1.89,5.51,5.51,0,0,0,1.21.11,10.17,10.17,0,0,0,6-1.9,20.39,20.39,0,0,0,4.37-4.18c.15-.18.29-.37.43-.57a38.55,38.55,0,0,0,3.55-5.75c1-1.91,1.74-3.52,2.33-4.85l0,0a3.91,3.91,0,0,1,.31-.57,1.52,1.52,0,0,1,1.29-.83.64.64,0,0,1,.2,0,.43.43,0,0,1,.3.47,1.39,1.39,0,0,1,0,.3,2.84,2.84,0,0,1-.27.7q-1.4,3-3,6.35a36.49,36.49,0,0,1-3.8,6.3A17.58,17.58,0,0,1,172,85.15a12.64,12.64,0,0,1-4.38,1.57A16.11,16.11,0,0,1,164.75,87Zm-27.1-13.4,6.7-17.1a4.06,4.06,0,0,0,.3-1.4,3.16,3.16,0,0,0-.13-1,2.79,2.79,0,0,0-.37-.78l-.7-1,5.5-.2h.27a3.19,3.19,0,0,1,1.84.34l0,0a1.5,1.5,0,0,1,.59.69,1.13,1.13,0,0,1,.06.36,6.77,6.77,0,0,1-.7,2.2l-8.3,19.5-.55,1.25c-.31.71-.51,1.22-.61,1.52a.65.65,0,0,1,0,.13c0,.18-.07.35-.1.53-.14.67-.23,1.12-.29,1.35v0l0,.14a3.26,3.26,0,0,0-.07.36v.8a4.29,4.29,0,0,0,.13,1.07,3.33,3.33,0,0,0,.52,1.13,2,2,0,0,0,1,.71,3.81,3.81,0,0,0,1.29.19,4.28,4.28,0,0,0,.87-.09,5.71,5.71,0,0,0,.87-.27,5.55,5.55,0,0,0,.56-.24,6.93,6.93,0,0,0,1.83-1.12l.07-.08a26.3,26.3,0,0,0,2.11-2.48c.65-.88,1.31-1.84,2-2.88.3-.49.6-1,.88-1.49,1.64-2.83,4.33-6.16,3.07-2.77a54.91,54.91,0,0,1-2.86,5.81l-.51.76a27.18,27.18,0,0,1-2.27,3,20.58,20.58,0,0,1-2.18,2.1A8.77,8.77,0,0,1,146.06,86a7.27,7.27,0,0,1-2.91.58,10,10,0,0,1-1.89-.16,6,6,0,0,1-1.83-.65A4.52,4.52,0,0,1,138,84.4a8.42,8.42,0,0,1-1.5-5,14.38,14.38,0,0,1,.31-2.85,1.42,1.42,0,0,0,0-.2c.14-.62.31-1.23.5-1.83C137.41,74.23,137.53,73.89,137.65,73.55Zm-81.1-22.3a42.57,42.57,0,0,0,10.86-4c.83-.44,1.64-.91,2.44-1.4a53.31,53.31,0,0,0,11.7-9.6,47.66,47.66,0,0,0,8.3-12.3,32.2,32.2,0,0,0,3-10.75c.08-.93.12-1.86.12-2.8a5,5,0,0,0-.14-1.27,3.86,3.86,0,0,0-.76-1.53,2.89,2.89,0,0,0-1.75-1,4.8,4.8,0,0,0-.85-.08,9.78,9.78,0,0,0-4.92,1.9l-1,.65a39.46,39.46,0,0,0-7.32,7.39l-.88,1.11q-1.71,2.25-3.24,4.62c-1.06,1.64-2.14,3.43-3.25,5.39s-2.32,4.2-3.41,6.34l-1.35,2.6-.71,1.39L60.7,43Q58.66,47,56.55,51.25Zm-44.9,44.1a18.68,18.68,0,0,0,2.59-.18q1.1-.17,2.16-.42a23.29,23.29,0,0,0,3-.89c.82-.3,1.62-.64,2.4-1a34.28,34.28,0,0,0,8-5.48,49.56,49.56,0,0,0,5.95-6.55c.55-.71,1.08-1.43,1.59-2.17a43.8,43.8,0,0,0-4.8-.75c-1.66-.16-3.36-.25-5.1-.25s-3.46.1-5.19.27l-.36,0a31.16,31.16,0,0,0-5.55,1.1q-2.05.56-4.05,1.29a30.33,30.33,0,0,0-3.55,1.6A19,19,0,0,0,6,83.65a14.49,14.49,0,0,0-1.63,1.5,8.66,8.66,0,0,0-1.24,1.69,5.27,5.27,0,0,0-.68,2.51,4.63,4.63,0,0,0,1.34,3.26A7.31,7.31,0,0,0,5,93.6a9.19,9.19,0,0,0,2.77,1.28,13.68,13.68,0,0,0,2.61.43C10.77,95.34,11.21,95.36,11.65,95.35Zm151.3-26a18.13,18.13,0,0,0,4.7-1,17.13,17.13,0,0,0,6-3.35,18.21,18.21,0,0,0,2.67-2.88,15.57,15.57,0,0,0,1.33-2.17,15.78,15.78,0,0,0,.74-1.62,8.57,8.57,0,0,0,.66-3,3.42,3.42,0,0,0-.06-.78,1.48,1.48,0,0,0-1.54-1.42,6.35,6.35,0,0,0-3.3,1.6,16.12,16.12,0,0,0-1.33,1.15A39.23,39.23,0,0,0,170,58.86l-1,1.19a54.5,54.5,0,0,0-3.17,4.51c-.14.23-.28.46-.43.69Q163.66,68.06,163,69.35ZM151.25,46a3.16,3.16,0,0,1-2.45-1.05,3.68,3.68,0,0,1-1-2.55,4.32,4.32,0,0,1,1.28-3.07l.22-.23a5.85,5.85,0,0,1,1.3-.91,4.38,4.38,0,0,1,2-.49,4.48,4.48,0,0,1,1.21.17,3.3,3.3,0,0,1,1.39.83,3.24,3.24,0,0,1,1,2.36v0A4.55,4.55,0,0,1,155.19,44c-.14.16-.28.32-.44.47a4.91,4.91,0,0,1-1.54,1.09A4.54,4.54,0,0,1,151.25,46Z"/></g><g id="svgGroup-2" data-name="svgGroup"><path class="cls-2" d="M5.4,126.43H2.45V98.57H4.88l19.22,24.2H22.83V98.57h2.9v27.86H23.31L4.13,102.24H5.4Z"/><path class="cls-2" d="M67.33,126.17a16.29,16.29,0,0,0,4.11.5c.39,0,.78,0,1.17,0a15.08,15.08,0,0,0,4.64-1,13.86,13.86,0,0,0,4.63-3,13.67,13.67,0,0,0,3.67-6.25,15.05,15.05,0,0,0,.49-3.9c0-.34,0-.69,0-1A14.13,14.13,0,0,0,85,106.85a13.59,13.59,0,0,0-3.07-4.5,13.86,13.86,0,0,0-4.63-3,15.23,15.23,0,0,0-5.81-1c-.49,0-1,0-1.46,0a15.31,15.31,0,0,0-4.39,1,13.7,13.7,0,0,0-7.7,7.48,14.78,14.78,0,0,0-.63,1.84,15.61,15.61,0,0,0-.47,3.79c0,.38,0,.77,0,1.15a13.71,13.71,0,0,0,8.78,12A15,15,0,0,0,67.33,126.17ZM71.44,124a12.53,12.53,0,0,0,3.23-.39,12.74,12.74,0,0,0,1.4-.46,11,11,0,0,0,3.71-2.43,11.4,11.4,0,0,0,2.44-3.66,11.25,11.25,0,0,0,.84-3.52c0-.36,0-.72,0-1.08a12.89,12.89,0,0,0-.34-3,11.4,11.4,0,0,0-.54-1.62,11.18,11.18,0,0,0-2.44-3.66,11,11,0,0,0-3.71-2.43,12.05,12.05,0,0,0-3.7-.83q-.47,0-.93,0a13.54,13.54,0,0,0-3.42.44c-.42.12-.83.26-1.24.42a10.91,10.91,0,0,0-3.72,2.43,11.24,11.24,0,0,0-2.46,3.66,11.77,11.77,0,0,0,2.46,12.85,10.91,10.91,0,0,0,3.72,2.43,12.3,12.3,0,0,0,3.88.83C70.92,124,71.18,124,71.44,124Z"/><path class="cls-2" d="M127.14,126.43h-2.9L111.9,98.57h3.19l11.54,26.23h-1.75l11.61-26.23h3Z"/><path class="cls-2" d="M162.52,126.43h-3.06l12.73-27.86h2.91l12.73,27.86h-3.1L173,100.29h1.19Zm19.9-7.44H164.47l.88-2.39h16.19Z"/></g></g></g></svg>