<?xml version="1.0" encoding="utf-8"?>
<!-- Generator: Adobe Illustrator 23.0.1, SVG Export Plug-In . SVG Version: 6.00 Build 0)  -->
<svg version="1.1" id="Vrstva_1" xmlns="http://www.w3.org/2000/svg" xmlns:xlink="http://www.w3.org/1999/xlink" x="0px" y="0px"
	 viewBox="0 0 256.6 293.6" style="enable-background:new 0 0 256.6 293.6;" xml:space="preserve">
<style type="text/css">
	.st0{fill-rule:evenodd;clip-rule:evenodd;fill:#5EA541;}
</style>
<title>Datový zdroj 1</title>
<g>
	<g id="svg">
		<g id="svgg">
			<path id="path0" class="st0" d="M125.7,34.1l-3.2,3.1c-5.2,4.9-16.9,11.8-27.2,16.1c-4.8,1.8-9.7,3.4-14.7,4.7l-3.1,0.8
				c-11,2.8-28.1,3.3-43.6,1.3c-1.3-0.2-3-0.3-3.8-0.3h-1.4l-0.2,4.9c-0.3,6,0,25.2,0.5,29.5c0.2,1.7,0.5,4.9,0.6,7.2s0.5,5,0.6,6.1
				s0.4,3.1,0.6,4.5c1.3,10,3.1,20,5.5,29.8c1.2,5,1.3,5.3,3.1,11.7c1.1,3.7,4.8,15.2,5.1,15.6c0.3,0.5,0.5,1,0.6,1.6
				c3.1,9.8,13.5,30.1,21,40.8c9.6,13.6,23.5,27.8,34.7,35.3c3.1,2.1,6.5,4.2,9.8,6.2c0.8,0.5,5.5,2.9,8.7,4.6
				c4.4,2.2,8.9,4,9.6,3.8c0.3-0.1,1.7-0.8,3.2-1.4c1.4-0.6,2.7-1.2,2.7-1.2c0.5,0,8.6-4.3,12.9-6.9c4.8-2.9,14.9-10,15.9-11.2
				c0.3-0.3,0.7-0.6,1.1-0.9c3-2.3,9.7-8.8,14-13.6c3.3-3.6,6.3-7.3,9.2-11.2c1.5-1.9,7.2-10.3,7.2-10.5c0-0.1,1-1.8,2.2-3.8
				c1.2-2,2.7-4.6,3.2-5.7c0.6-1.1,1.6-3.1,2.2-4.4c3.4-6.7,6.4-13.6,9-20.6c0.4-1.1,1-2.8,1.4-3.8c1.2-3.2,3.5-10.6,4.7-15.1
				c0.7-2.4,1.4-4.9,1.6-5.5c0.2-0.6,0.5-2,0.8-3.1c0.3-1.1,0.6-2.7,0.8-3.6c0.2-0.9,0.6-2.4,0.8-3.5c0.2-1.1,0.6-2.7,0.8-3.6
				c0.2-0.9,0.7-3.9,1.2-6.6c3.5-19.1,5-38.6,4.5-58l-0.2-7.2l-1.5-0.1c-1.3,0-2.5,0.1-3.7,0.2c-13,1.9-28.5,1.7-40.6-0.6
				c-3.6-0.6-7.2-1.5-10.8-2.7l-4.2-1.3c-6-1.9-16.9-6.9-20.5-9.4c-0.7-0.5-1.5-1-1.7-1.1c-2.2-1-8.4-5.6-11.5-8.5
				C128,31.4,128.4,31.6,125.7,34.1 M131.8,57c1.6,1.1,4.1,2.7,5.5,3.5c2.5,1.6,12.7,6.8,14.8,7.6l3.7,1.4c7.4,2.9,15,5.1,22.8,6.7
				c8,1.5,16.1,2.3,24.2,2.3c4.4,0.1,8.1,0.2,8.2,0.3c0.7,0.7-1,24.3-2.3,32.6c-0.1,0.9-0.4,2.8-0.6,4.2c-0.5,3.4-1.8,10.8-2.5,14
				c-0.1,0.7-0.5,2.2-0.7,3.4c-2,9.8-7,26.2-10.3,34.1c-0.4,0.9-1,2.5-1.4,3.4s-1,2.5-1.4,3.4c-0.3,0.6-0.6,1.2-0.8,1.8
				c0,0.3-4.7,9.6-6.1,12.3c-0.6,1-1.2,2.1-1.7,3.2c0,0.2-0.1,0.3-0.2,0.4c-0.4,0.4-0.8,1-1,1.5c-2,3.6-6.3,10-6.9,10.2
				c-0.1,0.1-0.2,0.2-0.2,0.4c-0.3,0.6-0.6,1.1-1,1.6c-8.3,10.5-13.3,15.8-22.5,23.2c-4.2,3.2-8.6,6.2-13.1,9
				c-8.5,4.8-9.5,5.2-11,4.4c-4.8-2.4-9.5-5.1-14-8.1c-14.8-10-28.6-24.6-37.4-39.7c-0.2-0.3-0.8-1.4-1.4-2.4
				c-2.5-4.2-9.4-17.6-9.4-18.4c-0.2-0.7-0.5-1.3-0.8-1.9c-3.4-7.4-8.4-22.8-11.2-34.5c-1.2-5.1-3.1-14.3-3.5-17
				c-0.1-0.6-0.3-1.9-0.5-3c-2-11.1-4.1-37.4-3.1-38c2.8-0.3,5.5-0.4,8.3-0.3c16.5,0,32.8-3.2,48-9.5c5.3-2.1,14.5-6.7,17-8.5
				c0.3-0.2,0.6-0.4,1-0.6c2.3-1.3,4.4-2.7,6.5-4.2C127.9,54.7,128.5,54.8,131.8,57 M164.7,107.3c-1,1.2-4.1,5-6.9,8.4l-8.3,10.2
				c-1.8,2.2-3.6,4.5-4.1,5.1c-0.9,1.1-4.1,5-5.2,6.4c-0.3,0.3-4.1,5-8.4,10.3c-4.3,5.3-8.1,9.9-8.4,10.3s-1.7,2.1-3.1,3.8
				c-1.8,2.2-2.8,3.2-3.3,3.2c-0.5,0-4-2.7-13.2-10.4c-1.3-1.1-2.5-2.1-2.8-2.3c-0.6-0.4-9.6-7.8-11.3-9.2s-2.3-1.7-3-0.8
				c-0.3,0.4-2.7,3.3-5.3,6.5c-5,6.1-5.2,6.5-3.9,7.3c0.5,0.3,2.1,1.6,3.7,2.9c1.5,1.3,4.6,3.8,6.7,5.5c2.1,1.7,4.8,3.9,5.9,4.8
				l2.6,2.2l4,3.3c1.9,1.6,3.9,3.2,4.4,3.6c0.5,0.4,2.3,1.9,4,3.3c1.7,1.4,3.4,2.8,3.8,3.1s1.7,1.3,2.7,2.2c3.5,2.9,4.2,3.4,4.7,3
				c0.5-0.4,8.9-10.6,10.7-13.1c0.6-0.8,1.6-2,2.2-2.7s1.6-1.8,2.1-2.5c0.5-0.7,2.1-2.6,3.4-4.2l3.7-4.5c0.7-0.8,2.9-3.5,4.8-5.9
				c2-2.4,3.8-4.6,4.1-5l1.3-1.6c0.4-0.5,2.3-2.8,4.1-5c3.7-4.6,4.1-5.1,5.5-6.7c0.5-0.6,2.6-3.2,4.7-5.7c4.7-5.8,5.2-6.5,9-11.1
				l3.9-4.8l0.8-1l-1.7-1.5c-0.9-0.8-3.4-2.9-5.5-4.6c-2.1-1.7-3.8-3.1-3.9-3.2c-0.8-0.7-1.7-1.3-2.6-1.9
				C166,105.9,165.3,106.6,164.7,107.3"/>
		</g>
	</g>
</g>
</svg>
